<?xml version="1.0" encoding="utf-8"?>
<!-- Generator: Adobe Illustrator 22.0.1, SVG Export Plug-In . SVG Version: 6.00 Build 0)  -->
<svg version="1.1" id="Layer_1" xmlns="http://www.w3.org/2000/svg" xmlns:xlink="http://www.w3.org/1999/xlink" x="0px" y="0px"
	 viewBox="0 0 383 93" style="enable-background:new 0 0 383 93;" xml:space="preserve">
<style type="text/css">
	.st0{fill:#092F3A;}
</style>
<path class="st0" d="M36.5,35.2c0,0-2.1-11.1-1-14.1c1-3,4.4-3.9,6.9-2.7c2,0.9,4.4,3.7,3.2,6.8C43.9,29.2,36.5,35.2,36.5,35.2z"/>
<path class="st0" d="M77.7,28.4c0,0,1.7-11.2,3.6-13.7s5.4-2.2,7.4-0.3c1.6,1.5,3,4.9,0.7,7.5C86.7,25.2,77.7,28.4,77.7,28.4z"/>
<path class="st0" d="M138,53.4c0,0,7.2-9.9,10.3-11.4c3.1-1.4,6.3,0.5,7.3,3.4c0.8,2.2,0.5,6.2-3,7.6C148.2,54.7,138,53.4,138,53.4z
	"/>
<path class="st0" d="M186.5,72.3c0,0,2.4-12,4.6-14.6s5.9-2.1,8.1,0c1.7,1.7,3,5.4,0.5,8.1C196.4,69.2,186.5,72.3,186.5,72.3z"/>
<path class="st0" d="M247.1,62.6c0,0-2.4-12-1.4-15.3c1-3.2,4.7-4.2,7.4-3.1c2.2,0.9,4.9,3.9,3.5,7.3C255,56,247.1,62.6,247.1,62.6z
	"/>
<path class="st0" d="M247.8,64.9c0,0,11.9-2.9,15.2-2c3.3,0.9,4.4,4.5,3.4,7.3c-0.8,2.2-3.7,5-7.2,3.8
	C254.8,72.5,247.8,64.9,247.8,64.9z"/>
<path class="st0" d="M157.6,65.6c0,0,10.4,6.5,12,9.5c1.6,3-0.1,6.3-2.9,7.5c-2.2,0.9-6.2,0.9-7.7-2.5
	C156.9,75.9,157.6,65.6,157.6,65.6z"/>
<path class="st0" d="M219.3,74c0,0,11.7,3.8,14,6.3c2.3,2.5,1.4,6.2-1,8c-1.9,1.4-5.8,2.3-8.1-0.5C221.2,84.2,219.3,74,219.3,74z"/>
<path class="st0" d="M351.6,28.2c0,0,8-19.1,12.5-22.6c4.5-3.5,10.5-1.5,13.3,2.7c2.2,3.3,3.1,10-2,13.6
	C368.9,26.4,351.6,28.2,351.6,28.2z"/>
<path class="st0" d="M272.6,50.2c0,0-3.7-15.5-2.5-19.7c1.2-4.2,5.9-5.7,9.5-4.3c2.9,1.1,6.5,4.8,4.9,9.3
	C282.6,41.2,272.6,50.2,272.6,50.2z"/>
<path class="st0" d="M16.4,45.7c0,0,8,8,11,8.8s5.6-1.4,6.2-4.1c0.4-2.1-0.5-5.7-3.8-6.4C25.5,43,16.4,45.7,16.4,45.7z"/>
<path class="st0" d="M102.7,36.8c0,0-1.2,11.2,0,14.1c1.2,2.9,4.6,3.5,7.1,2.2c1.9-1,4.1-4,2.6-7C110.5,42.3,102.7,36.8,102.7,36.8z
	"/>
<path class="st0" d="M327,30.6c0,0,5.6,19.9,9.6,24s10.3,2.8,13.5-1.1c2.6-3,4.3-9.6-0.3-13.7C344,34.5,327,30.6,327,30.6z"/>
<path class="st0" d="M282.8,48c0,0,9,16.6,13.4,19.4c4.4,2.8,9.7,0.4,11.8-3.7c1.7-3.2,1.9-9.4-3-12.1C298.7,48.1,282.8,48,282.8,48
	z"/>
<path class="st0" d="M309.3,34c0,0,14.5-12.9,16.2-18s-1.9-9.8-6.5-11c-3.6-0.9-9.8,0.3-11.4,5.9C305.6,18.1,309.3,34,309.3,34z"/>
<g>
	<g>
		<path class="st0" d="M382.1,37.4c-14.3-5.5-29.7-10.4-45.3-10.1c-11.6,0.2-22.8,3.7-33.5,8.1c-24.9,10.2-47.7,25.5-73.7,33.2
			c-26.6,8-52.8,3.7-77.5-8.2c-20.7-9.9-39.7-23.9-62-30.3c-13-3.7-26.2-4-39.3-0.6c-17.9,4.6-34.5,13.7-50.8,22
			C-1.5,52.4,0,55,1.7,54.1c26.5-13.5,54.8-29.6,85.4-21.8c22.3,5.7,41.4,19.7,61.8,29.8c21.7,10.7,45.4,16.7,69.5,12.3
			c25.7-4.7,48.5-18.6,71.8-29.8c12.8-6.2,26.2-12.2,40.4-13.9c17.3-2.1,34.8,3.5,50.7,9.6C383.1,40.9,383.9,38,382.1,37.4
			L382.1,37.4z"/>
	</g>
</g>
</svg>
