<?xml version="1.0" encoding="utf-8"?>
<!-- Generator: Adobe Illustrator 22.0.1, SVG Export Plug-In . SVG Version: 6.00 Build 0)  -->
<svg version="1.1" id="Layer_1" xmlns="http://www.w3.org/2000/svg" xmlns:xlink="http://www.w3.org/1999/xlink" x="0px" y="0px"
	 viewBox="0 0 383 93" style="enable-background:new 0 0 383 93;" xml:space="preserve">
<style type="text/css">
	.st0{fill:#092F3A;}
</style>
<path class="st0" d="M346.1,35.2c0,0,2.1-11.1,1-14.1c-1-3-4.4-3.9-6.9-2.7c-2,0.9-4.4,3.7-3.2,6.8
	C338.7,29.2,346.1,35.2,346.1,35.2z"/>
<path class="st0" d="M304.9,28.4c0,0-1.7-11.2-3.6-13.7s-5.4-2.2-7.4-0.3c-1.6,1.5-3,4.9-0.7,7.5C296,25.2,304.9,28.4,304.9,28.4z"
	/>
<path class="st0" d="M244.7,53.4c0,0-7.2-9.9-10.3-11.4c-3.1-1.4-6.3,0.5-7.3,3.4c-0.8,2.2-0.5,6.2,3,7.6
	C234.4,54.7,244.7,53.4,244.7,53.4z"/>
<path class="st0" d="M196.1,72.3c0,0-2.4-12-4.6-14.6s-5.9-2.1-8.1,0c-1.7,1.7-3,5.4-0.5,8.1C186.2,69.2,196.1,72.3,196.1,72.3z"/>
<path class="st0" d="M135.5,62.6c0,0,2.4-12,1.4-15.3c-1-3.2-4.7-4.2-7.4-3.1c-2.2,0.9-4.9,3.9-3.5,7.3
	C127.6,56,135.5,62.6,135.5,62.6z"/>
<path class="st0" d="M134.8,64.9c0,0-11.9-2.9-15.2-2c-3.3,0.9-4.4,4.5-3.4,7.3c0.8,2.2,3.7,5,7.2,3.8
	C127.8,72.5,134.8,64.9,134.8,64.9z"/>
<path class="st0" d="M225.1,65.6c0,0-10.4,6.5-12,9.5s0.1,6.3,2.9,7.5c2.2,0.9,6.2,0.9,7.7-2.5C225.7,75.9,225.1,65.6,225.1,65.6z"
	/>
<path class="st0" d="M163.3,74c0,0-11.7,3.8-14,6.3c-2.3,2.5-1.4,6.2,1,8c1.9,1.4,5.8,2.3,8.1-0.5C161.4,84.2,163.3,74,163.3,74z"/>
<path class="st0" d="M31,28.2c0,0-8-19.1-12.5-22.6S8,4,5.2,8.3c-2.2,3.3-3.1,10,2,13.6C13.7,26.4,31,28.2,31,28.2z"/>
<path class="st0" d="M110,50.2c0,0,3.7-15.5,2.5-19.7c-1.2-4.2-5.9-5.7-9.5-4.3c-2.9,1.1-6.5,4.8-4.9,9.3
	C100,41.2,110,50.2,110,50.2z"/>
<path class="st0" d="M366.2,45.7c0,0-8,8-11,8.8s-5.6-1.4-6.2-4.1c-0.4-2.1,0.5-5.7,3.8-6.4C357.1,43,366.2,45.7,366.2,45.7z"/>
<path class="st0" d="M279.9,36.8c0,0,1.2,11.2,0,14.1c-1.2,2.9-4.6,3.5-7.1,2.2c-1.9-1-4.1-4-2.6-7
	C272.1,42.3,279.9,36.8,279.9,36.8z"/>
<path class="st0" d="M55.6,30.6c0,0-5.6,19.9-9.6,24s-10.3,2.8-13.5-1.1c-2.6-3-4.3-9.6,0.3-13.7C38.7,34.5,55.6,30.6,55.6,30.6z"/>
<path class="st0" d="M99.8,48c0,0-9,16.6-13.4,19.4c-4.4,2.8-9.7,0.4-11.8-3.7c-1.7-3.2-1.9-9.4,3-12.1C83.9,48.1,99.8,48,99.8,48z"
	/>
<path class="st0" d="M73.3,34c0,0-14.5-12.9-16.2-18s1.9-9.8,6.5-11C67.2,4.2,73.4,5.4,75,11C77,18.1,73.3,34,73.3,34z"/>
<g>
	<g>
		<path class="st0" d="M1.3,40.3c14.6-5.6,30.5-10.8,46.3-9.9c12.4,0.6,24.4,5,35.6,10c23.7,10.5,45.9,24.7,71,31.8
			c24,6.8,48.2,3.8,71-6c21.3-9.2,40.2-23.4,62.1-31.2c13.6-4.8,27.7-6.3,41.9-2.9c18.3,4.4,35.1,13.6,51.7,22.1
			c1.7,0.9,3.2-1.7,1.5-2.6c-25.1-12.8-52.4-28.5-81.7-23.4c-22.6,4-42.1,17.5-62.1,28c-23.5,12.4-49.2,20.4-75.9,14.9
			c-27-5.6-50.7-20.9-75.5-32.2c-11.6-5.3-23.8-10-36.6-11.3c-17.1-1.7-34.5,3.8-50.3,9.8C-1.3,38-0.5,41,1.3,40.3L1.3,40.3z"/>
	</g>
</g>
</svg>
